<svg xmlns="http://www.w3.org/2000/svg" class="rw-icon-library" aria-hidden="true" focusable="false">
  <defs>
    <symbol id="rw-icon-orbit" viewBox="0 0 32 32"><circle cx="16" cy="16" r="5"/><ellipse cx="16" cy="16" rx="14" ry="7" transform="rotate(-40 16 16)"/><path d="m25 4 1-2m1 7 3-1M5 25l-3 2"/></symbol>
    <symbol id="rw-icon-diamond" viewBox="0 0 32 32"><path d="m16 3 12 13-12 13L4 16Z M4 16h24M16 3l-5 13 5 13 5-13Z"/></symbol>
    <symbol id="rw-icon-tower" viewBox="0 0 32 32"><path d="M6 29V9h5V4h10v5h5v20M3 29h26M13 29v-7h6v7M11 13h2m6 0h2m-10 5h2m6 0h2"/></symbol>
    <symbol id="rw-icon-globe" viewBox="0 0 32 32"><circle cx="16" cy="16" r="12"/><ellipse cx="16" cy="16" rx="5" ry="12"/><path d="M4 16h24M7 8c5 4 13 4 18 0M7 24c5-4 13-4 18 0"/></symbol>
    <symbol id="rw-icon-hourglass" viewBox="0 0 32 32"><path d="M7 3h18M7 29h18M9 3v6l7 7-7 7v6M23 3v6l-7 7 7 7v6M10 8h12M10 25h12"/></symbol>
    <symbol id="rw-icon-crystal" viewBox="0 0 32 32"><path d="m16 3 9 7v15l-9 5-9-5V10ZM7 10l9 6 9-6M16 16v14M16 3v13"/></symbol>
    <symbol id="rw-icon-book" viewBox="0 0 32 32"><path d="M16 8C11 4 7 4 3 5v21c5-1 9 0 13 3 4-3 8-4 13-3V5c-4-1-8-1-13 3Zm0 0v21M7 11l5 2M7 17l5 2m8-6 5-2m-5 8 5-2"/></symbol>
    <symbol id="rw-icon-flag" viewBox="0 0 32 32"><path d="M7 29V4h18l-4 7 4 7H7M3 29h8M12 4v6h6V4m0 7v6m-6-6v6"/></symbol>
    <symbol id="rw-icon-signal" viewBox="0 0 32 32"><path d="M3 16h5l3-9 6 20 4-16 3 5h5M5 4h5M22 28h5"/></symbol>
    <symbol id="rw-icon-snowflake" viewBox="0 0 32 32"><path d="M16 2v28M4 9l24 14M4 23 28 9M12 5l4 4 4-4M12 27l4-4 4 4M5 14l5-2-1-5m18 11-5 2 1 5M5 18l5 2-1 5m18-11-5-2 1-5"/></symbol>
    <symbol id="rw-icon-star" viewBox="0 0 32 32"><path d="m16 3 4 8 9 2-6 7 1 9-8-4-8 4 1-9-6-7 9-2Z"/></symbol>
    <symbol id="rw-icon-flask" viewBox="0 0 32 32"><path d="M11 3h10M13 3v10L5 25q-2 4 3 4h16q5 0 3-4l-8-12V3M9 21h14M13 25h1m4 0h1M13 9h6"/></symbol>
    <symbol id="rw-icon-scroll" viewBox="0 0 32 32"><path d="M8 5h17v20q0 4-4 4H6q-4 0-4-4v-2h17v2q0 4 3 4M8 23V7q0-4-4-4v5h4M12 10h9m-9 5h9m-9 4h6"/></symbol>
    <symbol id="rw-icon-steps" viewBox="0 0 32 32"><path d="M3 29h26V5h-8v8h-8v8H3ZM5 12l10-9m-6 0h6v6"/></symbol>
    <symbol id="rw-icon-compass" viewBox="0 0 32 32"><circle cx="16" cy="16" r="13"/><path d="m21 11-3 7-7 3 3-7 7-3ZM16 3v3m13 10h-3M16 29v-3M3 16h3"/></symbol>
    <symbol id="rw-icon-rocket" viewBox="0 0 32 32"><path d="M16 3c-5 4-7 10-7 18l7 7 7-7c0-8-2-14-7-18ZM9 17l-5 4v7l8-4m11-7 5 4v7l-8-4M16 27v3"/><circle cx="16" cy="13" r="2"/></symbol>
    <symbol id="rw-icon-chart" viewBox="0 0 32 32"><path d="M4 27h24M7 27V17h5v10m2 0V8h5v19m2 0V17h5v10"/></symbol>
    <symbol id="rw-icon-bridge" viewBox="0 0 32 32"><path d="M3 25h26M6 25V7m20 18V7M6 8h20M6 9q10 12 20 0M10 13v12m3-9v9m3-7v7m3-9v9m3-12v12"/></symbol>
    <symbol id="rw-icon-link" viewBox="0 0 32 32"><path d="M14 11h-4a5 5 0 0 0 0 10h4m4-10h4a5 5 0 0 1 0 10h-4m-8-5h12"/></symbol>
    <symbol id="rw-icon-dna" viewBox="0 0 32 32"><path d="M8 3c0 8 16 18 16 26M24 3c0 8-16 18-16 26M10 8h12m-9 6h6m-6 4h6m-9 6h12"/></symbol>
    <symbol id="rw-icon-mountain" viewBox="0 0 32 32"><path d="m3 26 9-16 4 7 4-7 9 16H3Zm9-16 4 7 4-7m-12 9 4-2 4 4 4-4 4 2"/></symbol>
    <symbol id="rw-icon-lamp" viewBox="0 0 32 32"><path d="M16 5a8 8 0 0 0-5 14c1 1 2 2 2 4h6c0-2 1-3 2-4A8 8 0 0 0 16 5Zm-3 18h6m-5 3h4m-3 3h2M16 1v2M4 5l2 2m20-2-2 2M1 14h3m24 0h3M5 24l2-2m20 2-2-2"/></symbol>
    <symbol id="rw-icon-brain" viewBox="0 0 32 32"><path d="M16 6a5 5 0 0 0-9-2 5 5 0 0 0-2 9 5 5 0 0 0 1 9 5 5 0 0 0 8 5h2V6Zm0 0a5 5 0 0 1 9-2 5 5 0 0 1 2 9 5 5 0 0 1-1 9 5 5 0 0 1-8 5h-2M9 9a4 4 0 0 1 4 4m-7 4a4 4 0 0 1 6 3m11-11a4 4 0 0 0-4 4m7 4a4 4 0 0 0-6 3M16 6v22"/></symbol>
    <symbol id="rw-icon-ruler" viewBox="0 0 32 32"><path d="M4 9h24v14H4Zm4 0v5m4-5v3m4-3v5m4-5v3m4-3v5M8 23v-5m4 5v-3m4 3v-5m4 5v-3m4 3v-5"/></symbol>
  </defs>
</svg>
